<svg width="40" height="40" viewBox="0 0 40 40" fill="none" xmlns="http://www.w3.org/2000/svg">
  <!-- Corps du mouton (pelotes de laine) -->
  <circle cx="20" cy="22" r="12" fill="#E5D3B3"/>
  <circle cx="18" cy="20" r="8" fill="#D4C4A8"/>
  <circle cx="22" cy="24" r="6" fill="#B8A898"/>
  <circle cx="16" cy="26" r="5" fill="#E5D3B3"/>
  <circle cx="24" cy="18" r="4" fill="#D4C4A8"/>
  
  <!-- Tête -->
  <circle cx="20" cy="12" r="6" fill="#F5E6D3"/>
  
  <!-- Oreilles -->
  <ellipse cx="17" cy="10" rx="2" ry="3" fill="#F5E6D3"/>
  <ellipse cx="23" cy="10" rx="2" ry="3" fill="#F5E6D3"/>
  
  <!-- Toupet sur la tête -->
  <ellipse cx="20" cy="8" rx="3" ry="2" fill="#A67C52"/>
  
  <!-- Yeux -->
  <circle cx="18" cy="11" r="1.5" fill="#2C3E50"/>
  <circle cx="22" cy="11" r="1.5" fill="#2C3E50"/>
  <circle cx="18.5" cy="10.5" r="0.5" fill="white"/>
  <circle cx="22.5" cy="10.5" r="0.5" fill="white"/>
  
  <!-- Bouche souriante -->
  <path d="M18 14 Q20 16 22 14" stroke="#A67C52" stroke-width="1" fill="none"/>
  
  <!-- Pattes -->
  <rect x="17" y="32" width="2" height="4" fill="#F5E6D3"/>
  <rect x="21" y="32" width="2" height="4" fill="#F5E6D3"/>
  
  <!-- Fibres de laine volantes -->
  <circle cx="12" cy="8" r="1" fill="#F5E6D3" opacity="0.7"/>
  <circle cx="28" cy="10" r="0.8" fill="#F5E6D3" opacity="0.7"/>
  <circle cx="10" cy="15" r="0.6" fill="#F5E6D3" opacity="0.7"/>
  <circle cx="30" cy="18" r="0.7" fill="#F5E6D3" opacity="0.7"/>
</svg>
